# Wavefront OBJ exported by MilkShape 3D

mtllib ammobox.mtl

v -34.000629 -0.000000 63.999615
v 33.999611 -0.000000 63.999615
v -34.000629 0.000000 -64.001541
v 33.999611 0.000000 -64.001541
v -34.000629 28.000000 63.999615
v 33.999611 28.000000 63.999615
v -34.000629 28.000000 -64.001541
v 33.999611 28.000000 -64.001541
v -33.905842 7.566949 64.064095
v 33.654827 7.917143 64.064095
v -33.905842 13.235065 64.064095
v 33.654827 13.585259 64.064095
v -33.905842 7.566949 66.065125
v 33.654827 7.917143 66.065125
v -33.905842 13.235065 66.065125
v 33.654827 13.585259 66.065125
v -33.905842 28.000000 44.910275
v 33.589207 28.000000 44.757122
v -33.905842 28.000000 37.246727
v 33.589207 28.000000 37.095592
v -33.905842 30.000000 44.910275
v 33.589207 30.000000 44.757122
v -33.905842 30.000000 37.246727
v 33.589207 30.000000 37.095592
v -33.406895 28.000000 -36.817417
v 33.767326 28.000000 -36.571571
v -33.406895 28.000000 -44.480961
v 33.767326 28.000000 -44.235115
v -33.406895 30.000000 -36.817417
v 33.767326 30.000000 -36.571571
v -33.406895 30.000000 -44.480961
v 33.767326 30.000000 -44.235115
v -34.264164 7.566949 -65.996521
v 33.294422 7.917143 -65.996521
v -34.264164 13.235065 -65.996521
v 33.294422 13.585259 -65.996521
v -34.264164 7.566949 -63.997509
v 33.294422 7.917143 -63.997509
v -34.264164 13.235065 -63.997509
v 33.294422 13.585259 -63.997509
# 40 vertices

vt 0.998047 0.000000
vt 0.999023 0.443257
vt 0.000000 0.000000
vt 0.000000 0.443257
vt 0.000000 0.444901
vt 0.999023 0.444901
vt 0.529297 0.814967
vt 0.529297 0.999178
vt 0.000000 0.814967
vt 0.000000 0.999178
vt 0.000000 0.628289
vt 0.000000 0.811678
vt 0.999023 0.628289
vt 0.999023 0.811678
vt 0.000000 0.446546
vt 0.999023 0.446546
vt 0.000977 0.949013
vt 0.000000 0.907072
vt 0.526367 0.950658
vt 0.527344 0.907895
vt 0.035156 0.913651
vt 0.035156 0.925987
vt 0.456055 0.913651
vt 0.456055 0.925987
vt 0.812500 0.156250
vt 0.825195 0.156250
vt 0.812500 0.118421
vt 0.825195 0.118421
vt 0.487305 0.943257
vt 0.487305 0.930921
vt 0.060547 0.943257
vt 0.060547 0.930921
vt 0.838867 0.118421
vt 0.838867 0.156250
vt 0.845703 0.000000
vt 0.786133 0.000000
vt 0.845703 0.444901
vt 0.786133 0.444901
vt 0.806641 0.010691
vt 0.793945 0.010691
vt 0.806641 0.442434
vt 0.793945 0.442434
vt 0.177734 0.248355
vt 0.165039 0.248355
vt 0.177734 0.298520
vt 0.165039 0.298520
vt 0.819336 0.010691
vt 0.819336 0.442434
vt 0.191406 0.248355
vt 0.191406 0.298520
vt 0.211914 0.000822
vt 0.152344 0.000822
vt 0.209961 0.444901
vt 0.151367 0.444901
vt 0.832031 0.012336
vt 0.819336 0.012336
vt 0.832031 0.442434
vt 0.151367 0.248355
vt 0.151367 0.298520
vt 0.844727 0.012336
vt 0.844727 0.442434
vt 0.205078 0.248355
vt 0.205078 0.298520
vt 0.529297 0.907895
vt 0.002930 0.907072
vt 0.528320 0.950658
vt 0.003906 0.949013
vt 0.165039 0.006579
vt 0.152344 0.006579
vt 0.165039 0.439145
vt 0.152344 0.439145
vt 0.812500 0.230263
vt 0.825195 0.230263
vt 0.812500 0.192434
vt 0.825195 0.192434
vt 0.190430 0.439145
vt 0.204102 0.439145
vt 0.190430 0.006579
vt 0.204102 0.006579
vt 0.838867 0.192434
vt 0.838867 0.230263
# 81 texture coordinates

vn 0.816497 -0.408248 0.408248
vn -0.333333 -0.666667 0.666667
vn 0.333333 -0.666667 -0.666667
vn -0.816497 -0.408248 -0.408248
vn -0.408248 0.408248 -0.816497
vn -0.666667 0.666667 0.333333
vn 0.666667 0.666667 -0.333333
vn 0.408248 0.408248 0.816497
vn 0.411770 -0.815079 0.407545
vn 0.665706 0.333713 0.667436
vn -0.665706 -0.333713 0.667436
vn -0.411770 0.815079 0.407545
vn 0.894892 -0.446283 0.000000
vn -0.443498 -0.896275 0.000000
vn 0.443498 0.896275 0.000000
vn -0.894892 0.446283 0.000000
vn 0.409791 0.407940 0.815878
vn -0.409771 0.407944 -0.815886
vn 0.894630 0.000000 0.446807
vn -0.445589 0.000000 0.895238
vn 0.445610 0.000000 -0.895227
vn -0.894628 0.000000 -0.446812
vn 0.405755 0.408747 0.817489
vn -0.405755 0.408747 -0.817489
vn 0.894100 0.000000 0.447867
vn -0.449829 0.000000 0.893115
vn 0.449829 0.000000 -0.893115
vn -0.894100 0.000000 -0.447867
vn -0.817202 0.407539 -0.407545
vn 0.330258 0.667427 -0.667436
vn -0.330258 -0.667427 -0.667436
vn 0.817202 -0.407539 -0.407545
vn 0.450916 -0.892566 0.000000
vn -0.893965 -0.448138 0.000000
vn 0.893965 0.448138 0.000000
vn -0.450916 0.892566 0.000000
# 36 normals

g Frame0
usemtl mat_ammo_box_5_1
s 1
f 2/1/1 1/2/2 4/3/3
f 3/4/4 4/3/3 1/2/2
f 7/5/5 5/6/6 8/3/7
f 6/1/8 8/3/7 5/6/6
f 5/7/6 1/8/2 6/9/8
f 2/10/1 6/9/8 1/8/2
f 6/11/8 2/12/1 8/13/7
f 4/14/3 8/13/7 2/12/1
f 8/9/7 4/10/3 7/7/5
f 3/8/4 7/7/5 4/10/3
f 7/15/5 3/11/4 5/16/6
f 1/13/2 5/16/6 3/11/4
f 14/17/9 16/18/10 13/19/11
f 15/20/12 13/19/11 16/18/10
f 10/21/13 14/22/9 9/23/14
f 13/24/11 9/23/14 14/22/9
f 12/25/15 16/26/10 10/27/13
f 14/28/9 10/27/13 16/26/10
f 11/29/16 15/30/12 12/31/15
f 16/32/10 12/31/15 15/30/12
f 9/33/14 13/28/11 11/34/16
f 15/26/12 11/34/16 13/28/11
f 22/35/17 24/36/7 21/37/6
f 23/38/18 21/37/6 24/36/7
f 18/39/19 22/40/17 17/41/20
f 21/42/6 17/41/20 22/40/17
f 20/43/21 24/44/7 18/45/19
f 22/46/17 18/45/19 24/44/7
f 19/47/22 23/39/18 20/48/21
f 24/41/7 20/48/21 23/39/18
f 17/49/20 21/43/6 19/50/22
f 23/45/18 19/50/22 21/43/6
f 30/51/23 32/52/7 29/53/6
f 31/54/24 29/53/6 32/52/7
f 26/55/25 30/56/23 25/57/26
f 29/48/6 25/57/26 30/56/23
f 28/44/27 32/58/7 26/46/25
f 30/59/23 26/46/25 32/58/7
f 27/60/28 31/55/24 28/61/27
f 32/57/7 28/61/27 31/55/24
f 25/62/26 29/49/6 27/63/28
f 31/50/24 27/63/28 29/49/6
f 35/64/29 36/65/30 33/66/31
f 34/67/32 33/66/31 36/65/30
f 34/68/32 38/69/33 33/70/31
f 37/71/34 33/70/31 38/69/33
f 36/72/30 40/73/35 34/74/32
f 38/75/33 34/74/32 40/73/35
f 35/76/29 39/77/36 36/78/30
f 40/79/35 36/78/30 39/77/36
f 33/80/31 37/75/34 35/81/29
f 39/73/36 35/81/29 37/75/34
# 52 triangles in group

# 52 triangles total

