# Wavefront OBJ exported by MilkShape 3D

mtllib barrel01.mtl

v 0.001259 0.001000 16.001259
v 8.001259 0.001000 13.857550
v 13.857550 0.001000 8.001259
v 16.001259 0.001000 0.001259
v 13.857550 0.001000 -7.998741
v 8.001259 0.001000 -13.855551
v 0.001259 0.001000 -15.998741
v -7.998741 0.001000 -13.855551
v -13.855551 0.001000 -7.998741
v -15.998741 0.001000 0.001259
v -13.855551 0.001000 8.001259
v -7.998741 0.001000 13.857550
v 0.001259 17.334333 16.001259
v 8.001259 17.334333 13.857550
v 13.857550 17.334333 8.001259
v 16.001259 17.334333 0.001259
v 13.857550 17.334333 -7.998741
v 8.001259 17.334333 -13.855551
v 0.001259 17.334333 -15.998741
v -7.998741 17.334333 -13.855551
v -13.855551 17.334333 -7.998741
v -15.998741 17.334333 0.001259
v -13.855551 17.334333 8.001259
v -7.998741 17.334333 13.857550
v 0.001259 34.667667 16.001259
v 8.001259 34.667667 13.857550
v 13.857550 34.667667 8.001259
v 16.001259 34.667667 0.001259
v 13.857550 34.667667 -7.998741
v 8.001259 34.667667 -13.855551
v 0.001259 34.667667 -15.998741
v -7.998741 34.667667 -13.855551
v -13.855551 34.667667 -7.998741
v -15.998741 34.667667 0.001259
v -13.855551 34.667667 8.001259
v -7.998741 34.667667 13.857550
v 0.001259 52.000999 16.001259
v 8.001259 52.000999 13.857550
v 13.857550 52.000999 8.001259
v 16.001259 52.000999 0.001259
v 13.857550 52.000999 -7.998741
v 8.001259 52.000999 -13.855551
v 0.001259 52.000999 -15.998741
v -7.998741 52.000999 -13.855551
v -13.855551 52.000999 -7.998741
v -15.998741 52.000999 0.001259
v -13.855551 52.000999 8.001259
v -7.998741 52.000999 13.857550
v 0.001259 18.334105 16.001259
v 8.001259 18.334105 13.857550
v 13.857550 18.334105 8.001259
v 16.001259 18.334105 0.001259
v 13.857550 18.334105 -7.998741
v 8.001259 18.334105 -13.855551
v 0.001259 18.334105 -15.998741
v -7.998741 18.334105 -13.855551
v -13.855551 18.334105 -7.998741
v -15.998741 18.334105 0.001259
v -13.855551 18.334105 8.001259
v -7.998741 18.334105 13.857550
v 8.001259 33.667896 13.857550
v 0.001259 33.667896 16.001259
v -7.998741 33.667896 13.857550
v -13.855551 33.667896 8.001259
v -15.998741 33.667896 0.001259
v -13.855551 33.667896 -7.998741
v -7.998741 33.667896 -13.855551
v 0.001259 33.667896 -15.998741
v 8.001259 33.667896 -13.855551
v 13.857550 33.667896 -7.998741
v 16.001259 33.667896 0.001259
v 13.857550 33.667896 8.001259
v 0.001259 17.834219 17.000999
v 8.500870 17.834219 14.723438
v 14.723438 17.834219 8.500870
v 17.000999 17.834219 0.001259
v 14.723438 17.834219 -8.498871
v 8.500870 17.834219 -14.721439
v 0.000740 17.834219 -16.999001
v -8.498871 17.834219 -14.721439
v -14.721439 17.834219 -8.498871
v -16.999001 17.834219 0.001259
v -14.721439 17.834219 8.500870
v -8.498871 17.834219 14.723438
v 8.500870 34.167782 14.723438
v 0.001259 34.167782 17.000999
v -8.498871 34.167782 14.723438
v -14.721439 34.167782 8.500870
v -16.999001 34.167782 0.001259
v -14.721439 34.167782 -8.498871
v -8.498871 34.167782 -14.721439
v 0.000740 34.167782 -16.999001
v 8.500870 34.167782 -14.721439
v 14.723438 34.167782 -8.498871
v 17.000999 34.167782 0.001259
v 14.723438 34.167782 8.500870
v 7.483490 2.001336 12.961051
v 0.001259 2.001336 14.965720
v -7.481491 2.001336 12.961051
v -12.959052 2.001336 7.483490
v -14.963721 2.001336 0.001259
v -12.959052 2.001336 -7.481491
v -7.481491 2.001336 -12.959052
v 0.001259 2.001336 -14.963721
v 7.483490 2.001336 -12.959052
v 12.961051 2.001336 -7.481491
v 14.965720 2.001336 0.001259
v 12.961051 2.001336 7.483490
v 0.001259 50.000664 14.965720
v 7.483490 50.000664 12.961051
v 12.961051 50.000664 7.483490
v 14.965720 50.000664 0.001259
v 12.961051 50.000664 -7.481491
v 7.483490 50.000664 -12.959052
v 0.001259 50.000664 -14.963721
v -7.481491 50.000664 -12.959052
v -12.959052 50.000664 -7.481491
v -14.963721 50.000664 0.001259
v -12.959052 50.000664 7.483490
v -7.481491 50.000664 12.961051
v 13.857550 0.001000 -7.998741
v 13.857550 17.334333 -7.998741
v 13.857550 0.001000 -7.998741
v 13.857550 18.334105 -7.998741
v 13.857550 33.667896 -7.998741
v 13.857550 18.334105 -7.998741
v 13.857550 34.667667 -7.998741
v 13.857550 52.000999 -7.998741
v 13.857550 34.667667 -7.998741
v 13.857550 17.334333 -7.998741
v 14.723438 17.834219 -8.498871
v 13.857550 17.334333 -7.998741
v 13.857550 18.334105 -7.998741
v 14.723438 17.834219 -8.498871
v 14.723438 17.834219 -8.498871
v 13.857550 18.334105 -7.998741
v 16.001259 18.334105 0.001259
v 17.000999 17.834219 0.001259
v 17.000999 17.834219 0.001259
v 14.723438 17.834219 -8.498871
v 13.857550 18.334105 -7.998741
v 13.857550 34.667667 -7.998741
v 13.857550 34.667667 -7.998741
v 16.001259 34.667667 0.001259
v 13.857550 34.667667 -7.998741
v 17.000999 34.167782 0.001259
v 17.000999 34.167782 0.001259
v 17.000999 34.167782 0.001259
v 14.723438 34.167782 -8.498871
v 14.723438 34.167782 -8.498871
v 17.000999 34.167782 0.001259
v 13.857550 33.667896 -7.998741
v 13.857550 33.667896 -7.998741
v 0.001259 2.001336 14.965720
v 0.001259 2.001336 14.965720
v 7.483490 2.001336 12.961051
v -7.481491 2.001336 12.961051
v -7.481491 2.001336 12.961051
v 0.001259 2.001336 14.965720
v -12.959052 2.001336 7.483490
v -12.959052 2.001336 7.483490
v -7.481491 2.001336 12.961051
v -14.963721 2.001336 0.001259
v -14.963721 2.001336 0.001259
v -12.959052 2.001336 7.483490
v -12.959052 2.001336 -7.481491
v -12.959052 2.001336 -7.481491
v -14.963721 2.001336 0.001259
v -7.481491 2.001336 -12.959052
v -7.481491 2.001336 -12.959052
v -12.959052 2.001336 -7.481491
v 0.001259 2.001336 -14.963721
v 0.001259 2.001336 -14.963721
v -7.481491 2.001336 -12.959052
v 7.483490 2.001336 -12.959052
v 7.483490 2.001336 -12.959052
v 0.001259 2.001336 -14.963721
v 13.857550 0.001000 -7.998741
v 12.961051 2.001336 -7.481491
v 12.961051 2.001336 -7.481491
v 7.483490 2.001336 -12.959052
v 13.857550 0.001000 -7.998741
v 16.001259 0.001000 0.001259
v 14.965720 2.001336 0.001259
v 14.965720 2.001336 0.001259
v 12.961051 2.001336 -7.481491
v 13.857550 0.001000 -7.998741
v 12.961051 2.001336 7.483490
v 12.961051 2.001336 7.483490
v 14.965720 2.001336 0.001259
v 7.483490 2.001336 12.961051
v 7.483490 2.001336 12.961051
v 12.961051 2.001336 7.483490
v 7.483490 50.000664 12.961051
v 7.483490 50.000664 12.961051
v 0.001259 50.000664 14.965720
v 12.961051 50.000664 7.483490
v 12.961051 50.000664 7.483490
v 7.483490 50.000664 12.961051
v 14.965720 50.000664 0.001259
v 14.965720 50.000664 0.001259
v 12.961051 50.000664 7.483490
v 12.961051 50.000664 -7.481491
v 12.961051 50.000664 -7.481491
v 14.965720 50.000664 0.001259
v 13.857550 52.000999 -7.998741
v 7.483490 50.000664 -12.959052
v 7.483490 50.000664 -12.959052
v 12.961051 50.000664 -7.481491
v 13.857550 52.000999 -7.998741
v 0.001259 50.000664 -14.963721
v 0.001259 50.000664 -14.963721
v 7.483490 50.000664 -12.959052
v -7.481491 50.000664 -12.959052
v -7.481491 50.000664 -12.959052
v 0.001259 50.000664 -14.963721
v -12.959052 50.000664 -7.481491
v -12.959052 50.000664 -7.481491
v -7.481491 50.000664 -12.959052
v -14.963721 50.000664 0.001259
v -14.963721 50.000664 0.001259
v -12.959052 50.000664 -7.481491
v -12.959052 50.000664 7.483490
v -12.959052 50.000664 7.483490
v -14.963721 50.000664 0.001259
v -7.481491 50.000664 12.961051
v -7.481491 50.000664 12.961051
v -12.959052 50.000664 7.483490
v 0.001259 50.000664 14.965720
v 0.001259 50.000664 14.965720
v -7.481491 50.000664 12.961051
# 231 vertices

vt 0.828125 0.998047
vt 0.828125 0.771484
vt 0.771484 0.998047
vt 0.771484 0.771484
vt 0.884766 0.998047
vt 0.884766 0.771484
vt 0.941406 0.998047
vt 0.941406 0.771484
vt 0.998047 0.998047
vt 0.998047 0.771484
vt 0.373047 0.998047
vt 0.373047 0.771484
vt 0.316406 0.998047
vt 0.316406 0.771484
vt 0.429688 0.998047
vt 0.429688 0.771484
vt 0.486328 0.998047
vt 0.486328 0.771484
vt 0.542969 0.998047
vt 0.542969 0.771484
vt 0.601563 0.998047
vt 0.601563 0.771484
vt 0.658203 0.998047
vt 0.658203 0.771484
vt 0.714844 0.998047
vt 0.714844 0.771484
vt 0.828125 0.757813
vt 0.828125 0.556641
vt 0.771484 0.757813
vt 0.771484 0.556641
vt 0.884766 0.757813
vt 0.884766 0.556641
vt 0.941406 0.757813
vt 0.941406 0.556641
vt 0.998047 0.757813
vt 0.998047 0.556641
vt 0.373047 0.757813
vt 0.373047 0.556641
vt 0.316406 0.757813
vt 0.316406 0.556641
vt 0.429688 0.757813
vt 0.429688 0.556641
vt 0.486328 0.757813
vt 0.486328 0.556641
vt 0.542969 0.757813
vt 0.542969 0.556641
vt 0.601563 0.757813
vt 0.601563 0.556641
vt 0.658203 0.757813
vt 0.658203 0.556641
vt 0.714844 0.757813
vt 0.714844 0.556641
vt 0.828125 0.542969
vt 0.828125 0.316406
vt 0.771484 0.542969
vt 0.771484 0.316406
vt 0.884766 0.542969
vt 0.884766 0.316406
vt 0.941406 0.542969
vt 0.941406 0.316406
vt 0.998047 0.542969
vt 0.998047 0.316406
vt 0.373047 0.542969
vt 0.373047 0.316406
vt 0.316406 0.542969
vt 0.316406 0.316406
vt 0.429688 0.542969
vt 0.429688 0.316406
vt 0.486328 0.542969
vt 0.486328 0.316406
vt 0.542969 0.542969
vt 0.542969 0.316406
vt 0.601563 0.542969
vt 0.601563 0.316406
vt 0.658203 0.542969
vt 0.658203 0.316406
vt 0.714844 0.542969
vt 0.714844 0.316406
vt 0.359375 0.177734
vt 0.335938 0.265625
vt 0.335938 0.089844
vt 0.271484 0.330078
vt 0.183594 0.353516
vt 0.095703 0.330078
vt 0.031250 0.265625
vt 0.007813 0.177734
vt 0.031250 0.089844
vt 0.095703 0.027344
vt 0.183594 0.003906
vt 0.271484 0.027344
vt 0.828125 0.763672
vt 0.771484 0.763672
vt 0.884766 0.763672
vt 0.941406 0.763672
vt 0.998047 0.763672
vt 0.373047 0.763672
vt 0.316406 0.763672
vt 0.429688 0.763672
vt 0.486328 0.763672
vt 0.542969 0.763672
vt 0.601563 0.763672
vt 0.658203 0.763672
vt 0.714844 0.763672
vt 0.259766 0.757813
vt 0.259766 0.763672
vt 0.771484 0.550781
vt 0.828125 0.550781
vt 0.714844 0.550781
vt 0.658203 0.550781
vt 0.601563 0.550781
vt 0.542969 0.550781
vt 0.486328 0.550781
vt 0.429688 0.550781
vt 0.373047 0.550781
vt 0.316406 0.550781
vt 0.259766 0.542969
vt 0.259766 0.550781
vt 0.884766 0.550781
vt 0.941406 0.550781
vt 0.998047 0.550781
vt 0.771484 0.970703
vt 0.828125 0.970703
vt 0.714844 0.970703
vt 0.658203 0.970703
vt 0.601563 0.970703
vt 0.542969 0.970703
vt 0.486328 0.970703
vt 0.429688 0.970703
vt 0.373047 0.970703
vt 0.316406 0.970703
vt 0.259766 0.998047
vt 0.259766 0.970703
vt 0.884766 0.970703
vt 0.941406 0.970703
vt 0.828125 0.343750
vt 0.771484 0.343750
vt 0.884766 0.343750
vt 0.941406 0.343750
vt 0.998047 0.343750
vt 0.373047 0.343750
vt 0.316406 0.343750
vt 0.429688 0.343750
vt 0.486328 0.343750
vt 0.542969 0.343750
vt 0.601563 0.343750
vt 0.658203 0.343750
vt 0.714844 0.343750
# 147 texture coordinates

vn 0.395408 -0.918406 0.013513
vn 0.398709 -0.532723 0.746484
vn 0.335652 -0.918416 0.209402
vn -0.027964 -0.532739 0.845817
vn 0.349177 -0.918410 -0.186005
vn 0.718520 -0.532730 0.447134
vn 0.713335 -0.545369 -0.440142
vn 0.845812 -0.532747 0.027968
vn 0.965922 0.000000 -0.258832
vn 0.908515 -0.339607 -0.243449
vn -0.186093 -0.918391 -0.349181
vn 0.447134 -0.532757 -0.718499
vn 0.707138 0.000000 -0.707075
vn -0.335695 -0.918410 -0.209361
vn 0.027961 -0.532802 -0.845778
vn -0.395459 -0.918386 -0.013409
vn -0.398655 -0.532777 -0.746474
vn -0.349178 -0.918379 0.186156
vn -0.718491 -0.532794 -0.447104
vn -0.209351 -0.918410 0.335701
vn -0.845783 -0.532794 -0.027953
vn -0.013433 -0.918387 0.395456
vn -0.746481 -0.532749 0.398679
vn 0.186068 -0.918399 0.349174
vn -0.447102 -0.532759 0.718518
vn 0.447134 0.532730 0.718520
vn 0.027968 0.532747 0.845812
vn 0.746484 0.532723 0.398709
vn 0.905308 0.424727 -0.004988
vn 0.398679 0.532749 -0.746481
vn -0.027949 0.532794 -0.845783
vn -0.447105 0.532802 -0.718484
vn -0.746474 0.532777 -0.398655
vn -0.845778 0.532802 0.027957
vn -0.718493 0.532765 0.447135
vn -0.398685 0.532751 0.746477
vn -0.186005 0.918410 0.349177
vn -0.335647 0.918416 0.209413
vn 0.013513 0.918406 0.395409
vn 0.209402 0.918416 0.335652
vn 0.895465 0.374921 -0.239952
vn 0.395456 0.918387 -0.013433
vn 0.335701 0.918410 -0.209351
vn 0.186156 0.918379 -0.349178
vn -0.013409 0.918386 -0.395459
vn -0.209361 0.918410 -0.335695
vn -0.349181 0.918391 -0.186093
vn -0.395412 0.918405 0.013488
vn 0.000000 -1.000000 0.000000
vn 0.000000 1.000000 0.000000
vn 0.500018 -0.000009 0.866015
vn 0.000010 -0.000009 1.000000
vn 0.866015 0.000009 0.500018
vn 0.703963 -0.703946 0.094320
vn 0.444019 -0.888083 -0.118977
vn 0.500011 0.000009 -0.866019
vn 0.325115 -0.888042 -0.325086
vn 0.000019 0.000010 -1.000000
vn -0.500002 -0.000027 -0.866024
vn -0.866029 0.000018 -0.499994
vn -1.000000 -0.000009 0.000010
vn -0.866014 -0.000018 0.500020
vn -0.499992 0.000008 0.866030
vn 0.325012 0.888118 -0.324983
vn 0.444047 0.888067 -0.118989
vn 0.562469 0.703984 -0.433631
vn 0.444047 0.888068 0.118987
vn 0.444047 -0.888067 0.118989
vn -0.231503 -0.447243 -0.863933
vn 0.231522 -0.447092 -0.864006
vn 0.632445 -0.447163 -0.632501
vn 0.864031 -0.447069 -0.231473
vn 0.864022 -0.447087 0.231471
vn 0.632518 -0.447036 0.632518
vn 0.231473 -0.447069 0.864031
vn -0.231464 -0.447135 0.863999
vn -0.632545 -0.447040 0.632489
vn -0.863933 -0.447243 0.231503
vn -0.863982 -0.447140 -0.231516
vn -0.632472 -0.447167 -0.632472
vn -0.231516 0.447140 -0.863982
vn -0.632472 0.447167 -0.632472
vn -0.863933 0.447243 -0.231503
vn -0.864006 0.447092 0.231522
vn -0.632501 0.447163 0.632445
vn -0.231473 0.447069 0.864031
vn 0.231471 0.447087 0.864022
vn 0.632518 0.447036 0.632518
vn 0.864031 0.447069 0.231473
vn 0.863999 0.447135 -0.231464
vn 0.632489 0.447040 -0.632545
vn 0.231503 0.447243 -0.863933
# 92 normals

g construct
usemtl mat_barrel01_5_1
s 1
f 2/1/1 14/2/2 1/3/3
f 13/4/4 1/3/3 14/2/2
f 3/5/5 15/6/6 2/1/1
f 14/2/2 2/1/1 15/6/6
f 4/7/7 16/8/8 3/5/5
f 15/6/6 3/5/5 16/8/8
f 5/9/9 17/10/10 4/7/7
f 16/8/8 4/7/7 17/10/10
f 6/11/11 18/12/12 121/13/13
f 122/14/13 123/13/13 18/12/12
f 7/15/14 19/16/15 6/11/11
f 18/12/12 6/11/11 19/16/15
f 8/17/16 20/18/17 7/15/14
f 19/16/15 7/15/14 20/18/17
f 9/19/18 21/20/19 8/17/16
f 20/18/17 8/17/16 21/20/19
f 10/21/20 22/22/21 9/19/18
f 21/20/19 9/19/18 22/22/21
f 11/23/22 23/24/23 10/21/20
f 22/22/21 10/21/20 23/24/23
f 12/25/24 24/26/25 11/23/22
f 23/24/23 11/23/22 24/26/25
f 1/3/3 13/4/4 12/25/24
f 24/26/25 12/25/24 13/4/4
f 50/27/26 61/28/2 49/29/27
f 62/30/4 49/29/27 61/28/2
f 51/31/28 72/32/6 50/27/26
f 61/28/2 50/27/26 72/32/6
f 52/33/29 71/34/8 51/31/28
f 72/32/6 51/31/28 71/34/8
f 53/35/9 70/36/10 52/33/29
f 71/34/8 52/33/29 70/36/10
f 54/37/30 69/38/12 124/39/13
f 125/40/13 126/39/13 69/38/12
f 55/41/31 68/42/15 54/37/30
f 69/38/12 54/37/30 68/42/15
f 56/43/32 67/44/17 55/41/31
f 68/42/15 55/41/31 67/44/17
f 57/45/33 66/46/19 56/43/32
f 67/44/17 56/43/32 66/46/19
f 58/47/34 65/48/21 57/45/33
f 66/46/19 57/45/33 65/48/21
f 59/49/35 64/50/23 58/47/34
f 65/48/21 58/47/34 64/50/23
f 60/51/36 63/52/25 59/49/35
f 64/50/23 59/49/35 63/52/25
f 49/29/27 62/30/4 60/51/36
f 63/52/25 60/51/36 62/30/4
f 26/53/26 38/54/37 25/55/27
f 37/56/38 25/55/27 38/54/37
f 27/57/28 39/58/39 26/53/26
f 38/54/37 26/53/26 39/58/39
f 28/59/29 40/60/40 27/57/28
f 39/58/39 27/57/28 40/60/40
f 29/61/9 41/62/41 28/59/29
f 40/60/40 28/59/29 41/62/41
f 30/63/30 42/64/42 127/65/13
f 128/66/13 129/65/13 42/64/42
f 31/67/31 43/68/43 30/63/30
f 42/64/42 30/63/30 43/68/43
f 32/69/32 44/70/44 31/67/31
f 43/68/43 31/67/31 44/70/44
f 33/71/33 45/72/45 32/69/32
f 44/70/44 32/69/32 45/72/45
f 34/73/34 46/74/46 33/71/33
f 45/72/45 33/71/33 46/74/46
f 35/75/35 47/76/47 34/73/34
f 46/74/46 34/73/34 47/76/47
f 36/77/36 48/78/48 35/75/35
f 47/76/47 35/75/35 48/78/48
f 25/55/27 37/56/38 36/77/36
f 48/78/48 36/77/36 37/56/38
f 101/79/49 102/80/49 100/81/49
f 103/82/49 104/83/49 102/80/49
f 105/84/49 106/85/49 104/83/49
f 104/83/49 106/85/49 102/80/49
f 107/86/49 108/87/49 106/85/49
f 97/88/49 98/89/49 108/87/49
f 108/87/49 98/89/49 106/85/49
f 106/85/49 98/89/49 102/80/49
f 102/80/49 98/89/49 100/81/49
f 100/81/49 98/89/49 99/90/49
f 111/87/50 112/86/50 110/88/50
f 113/85/50 114/84/50 112/86/50
f 115/83/50 116/82/50 114/84/50
f 114/84/50 116/82/50 112/86/50
f 117/80/50 118/79/50 116/82/50
f 119/81/50 120/90/50 118/79/50
f 118/79/50 120/90/50 116/82/50
f 116/82/50 120/90/50 112/86/50
f 112/86/50 120/90/50 110/88/50
f 110/88/50 120/90/50 109/89/50
f 14/2/2 74/91/51 13/4/4
f 73/92/52 13/4/4 74/91/51
f 15/6/6 75/93/53 14/2/2
f 74/91/51 14/2/2 75/93/53
f 16/8/8 76/94/54 15/6/6
f 75/93/53 15/6/6 76/94/54
f 17/10/10 77/95/55 16/8/8
f 76/94/54 16/8/8 77/95/55
f 18/12/12 78/96/56 130/14/57
f 131/97/57 132/14/57 78/96/56
f 19/16/15 79/98/58 18/12/12
f 78/96/56 18/12/12 79/98/58
f 20/18/17 80/99/59 19/16/15
f 79/98/58 19/16/15 80/99/59
f 21/20/19 81/100/60 20/18/17
f 80/99/59 20/18/17 81/100/60
f 22/22/21 82/101/61 21/20/19
f 81/100/60 21/20/19 82/101/61
f 23/24/23 83/102/62 22/22/21
f 82/101/61 22/22/21 83/102/62
f 24/26/25 84/103/63 23/24/23
f 83/102/62 23/24/23 84/103/63
f 13/4/4 73/92/52 24/26/25
f 84/103/63 24/26/25 73/92/52
f 49/29/27 73/92/52 50/27/26
f 74/91/51 50/27/26 73/92/52
f 60/51/36 84/103/63 49/29/27
f 73/92/52 49/29/27 84/103/63
f 59/49/35 83/102/62 60/51/36
f 84/103/63 60/51/36 83/102/62
f 58/47/34 82/101/61 59/49/35
f 83/102/62 59/49/35 82/101/61
f 57/45/33 81/100/60 58/47/34
f 82/101/61 58/47/34 81/100/60
f 56/43/32 80/99/59 57/45/33
f 81/100/60 57/45/33 80/99/59
f 55/41/31 79/98/58 56/43/32
f 80/99/59 56/43/32 79/98/58
f 54/37/30 78/96/56 55/41/31
f 79/98/58 55/41/31 78/96/56
f 133/39/64 134/97/64 54/37/30
f 78/96/56 54/37/30 135/97/64
f 137/104/65 138/105/65 136/39/65
f 140/97/65 141/39/65 139/105/65
f 51/31/28 75/93/53 52/33/29
f 76/94/54 52/33/29 75/93/53
f 50/27/26 74/91/51 51/31/28
f 75/93/53 51/31/28 74/91/51
f 25/55/27 86/106/52 26/53/26
f 85/107/51 26/53/26 86/106/52
f 36/77/36 87/108/63 25/55/27
f 86/106/52 25/55/27 87/108/63
f 35/75/35 88/109/62 36/77/36
f 87/108/63 36/77/36 88/109/62
f 34/73/34 89/110/61 35/75/35
f 88/109/62 35/75/35 89/110/61
f 33/71/33 90/111/60 34/73/34
f 89/110/61 34/73/34 90/111/60
f 32/69/32 91/112/59 33/71/33
f 90/111/60 33/71/33 91/112/59
f 31/67/31 92/113/58 32/69/32
f 91/112/59 32/69/32 92/113/58
f 30/63/30 93/114/56 31/67/31
f 92/113/58 31/67/31 93/114/56
f 142/65/64 94/115/66 30/63/30
f 93/114/56 30/63/30 94/115/66
f 144/116/65 95/117/65 143/65/65
f 94/115/66 145/65/65 95/117/65
f 27/57/28 96/118/53 28/59/29
f 146/119/67 28/59/29 96/118/53
f 26/53/26 85/107/51 27/57/28
f 96/118/53 27/57/28 85/107/51
f 61/28/2 85/107/51 62/30/4
f 86/106/52 62/30/4 85/107/51
f 72/32/6 96/118/53 61/28/2
f 85/107/51 61/28/2 96/118/53
f 71/34/8 147/119/68 72/32/6
f 96/118/53 72/32/6 148/119/68
f 70/36/10 149/120/55 71/34/8
f 151/119/55 71/34/8 150/120/55
f 69/38/12 93/114/56 152/40/57
f 94/115/66 153/40/57 93/114/56
f 68/42/15 92/113/58 69/38/12
f 93/114/56 69/38/12 92/113/58
f 67/44/17 91/112/59 68/42/15
f 92/113/58 68/42/15 91/112/59
f 66/46/19 90/111/60 67/44/17
f 91/112/59 67/44/17 90/111/60
f 65/48/21 89/110/61 66/46/19
f 90/111/60 66/46/19 89/110/61
f 64/50/23 88/109/62 65/48/21
f 89/110/61 65/48/21 88/109/62
f 63/52/25 87/108/63 64/50/23
f 88/109/62 64/50/23 87/108/63
f 62/30/4 86/106/52 63/52/25
f 87/108/63 63/52/25 86/106/52
f 1/3/3 154/121/69 2/1/1
f 156/122/69 2/1/1 155/121/69
f 12/25/24 157/123/70 1/3/3
f 159/121/70 1/3/3 158/123/70
f 11/23/22 160/124/71 12/25/24
f 162/123/71 12/25/24 161/124/71
f 10/21/20 163/125/72 11/23/22
f 165/124/72 11/23/22 164/125/72
f 9/19/18 166/126/73 10/21/20
f 168/125/73 10/21/20 167/126/73
f 8/17/16 169/127/74 9/19/18
f 171/126/74 9/19/18 170/127/74
f 7/15/14 172/128/75 8/17/16
f 174/127/75 8/17/16 173/128/75
f 6/11/11 175/129/76 7/15/14
f 177/128/76 7/15/14 176/129/76
f 178/13/77 179/130/77 6/11/11
f 181/129/77 6/11/11 180/130/77
f 183/131/78 184/132/78 182/13/78
f 186/130/78 187/13/78 185/132/78
f 3/5/5 188/133/79 4/7/7
f 190/134/79 4/7/7 189/133/79
f 2/1/1 191/122/80 3/5/5
f 193/133/80 3/5/5 192/122/80
f 38/54/37 194/135/81 37/56/38
f 196/136/81 37/56/38 195/135/81
f 39/58/39 197/137/82 38/54/37
f 199/135/82 38/54/37 198/137/82
f 40/60/40 200/138/83 39/58/39
f 202/137/83 39/58/39 201/138/83
f 41/62/41 203/139/84 40/60/40
f 205/138/84 40/60/40 204/139/84
f 42/64/42 207/140/85 206/66/85
f 209/141/85 210/66/85 208/140/85
f 43/68/43 211/142/86 42/64/42
f 213/140/86 42/64/42 212/142/86
f 44/70/44 214/143/87 43/68/43
f 216/142/87 43/68/43 215/143/87
f 45/72/45 217/144/88 44/70/44
f 219/143/88 44/70/44 218/144/88
f 46/74/46 220/145/89 45/72/45
f 222/144/89 45/72/45 221/145/89
f 47/76/47 223/146/90 46/74/46
f 225/145/90 46/74/46 224/146/90
f 48/78/48 226/147/91 47/76/47
f 228/146/91 47/76/47 227/147/91
f 37/56/38 229/136/92 48/78/48
f 231/147/92 48/78/48 230/136/92
# 236 triangles in group

# 236 triangles total

