# Wavefront OBJ exported by MilkShape 3D

mtllib woodb4.mtl

v -31.999001 0.001000 -31.999001
v -31.999001 0.001000 -23.999512
v -31.999001 0.001004 60.201523
v -31.999001 0.001004 68.201012
v -23.998878 0.001000 -31.999001
v -23.998878 0.001000 -23.999512
v -23.998878 0.001004 60.201523
v -23.998878 0.001004 68.201012
v 24.000877 0.000998 -31.999001
v 24.000877 0.000998 -23.999512
v 24.000877 0.001002 60.201523
v 24.000877 0.001002 68.201012
v 32.000999 0.000997 -31.999001
v 32.000999 0.000998 -23.999512
v 32.000999 0.001001 60.201523
v 32.000999 0.001002 68.201012
v -31.998999 64.000999 -31.999002
v -31.998999 64.000999 -23.999514
v -31.998999 64.000999 60.201519
v -31.998999 64.000999 68.201012
v -23.998877 64.000999 -31.999002
v -23.998877 64.000999 -23.999514
v -23.998877 64.000999 60.201519
v -23.998877 64.000999 68.201012
v 24.000879 64.000999 -23.999514
v 24.000879 64.000999 60.201519
v 24.000879 64.000999 68.201012
v 24.000879 64.000999 -31.999002
v 32.001003 64.000999 -31.999002
v 32.001003 64.000999 -23.999514
v 32.001003 64.000999 60.201519
v 32.001003 64.000999 68.201012
v -31.999001 8.001122 -31.999001
v -31.999001 8.001122 -23.999512
v -31.999001 8.001126 60.201523
v -31.999001 8.001126 68.201012
v -23.998878 8.001126 68.201012
v 24.000877 8.001124 68.201012
v 32.000999 8.001124 68.201012
v 32.000999 8.001124 60.201523
v 32.000999 8.001121 -23.999512
v 32.000999 8.001121 -31.999001
v 24.000877 8.001121 -31.999001
v -23.998878 8.001122 -31.999001
v -31.998999 56.000877 -23.999514
v -31.998999 56.000881 60.201519
v -31.998999 56.000881 68.201012
v -23.998877 56.000881 68.201012
v 24.000879 56.000881 68.201012
v 32.001003 56.000881 68.201012
v 32.001003 56.000881 60.201519
v 32.001003 56.000877 -23.999514
v 32.001003 56.000877 -31.999002
v 24.000879 56.000877 -31.999002
v -23.998877 56.000877 -31.999002
v -31.998999 56.000877 -31.999002
v -23.998878 2.001034 60.201523
v -23.998878 2.001030 -23.999512
v 24.000877 2.001029 -23.999512
v 24.000877 2.001032 60.201523
v -23.998877 62.000969 -23.999514
v -23.998877 62.000973 60.201519
v 24.000879 62.000973 60.201519
v 24.000879 62.000969 -23.999514
v -29.998970 8.001122 -23.999512
v -29.998970 8.001126 60.201523
v -29.998968 56.000881 60.201519
v -29.998968 56.000877 -23.999514
v -23.998878 8.001126 66.201134
v 24.000877 8.001124 66.201134
v 24.000879 56.000881 66.201134
v -23.998877 56.000881 66.201134
v 30.000969 8.001124 60.201523
v 30.000969 8.001121 -23.999512
v 30.000971 56.000877 -23.999514
v 30.000971 56.000881 60.201519
v 24.000877 8.001121 -29.999128
v -23.998878 8.001122 -29.999128
v -23.998877 56.000877 -29.999130
v 24.000879 56.000877 -29.999130
v -31.118126 61.595688 -23.663145
v -31.118128 11.452351 64.250191
v -31.118126 52.909035 -28.616957
v -31.118128 2.765695 59.296379
v -29.618103 61.595688 -23.663145
v -29.618105 11.452351 64.250191
v -29.618103 52.909035 -28.616957
v -29.618105 2.765694 59.296379
v 19.996912 62.018547 -28.496168
v -28.269449 62.018551 60.462971
v 28.786108 62.018547 -23.727362
v -19.479277 62.018551 65.231781
v 19.996912 63.518570 -28.496168
v -28.269449 63.518574 60.462971
v 28.786108 63.518570 -23.727362
v -19.479277 63.518574 65.231781
v 19.996910 0.816440 -28.496166
v -28.269451 0.816446 60.462975
v 28.786106 0.816440 -23.727360
v -19.479279 0.816446 65.231781
v 19.996910 2.316463 -28.496166
v -28.269451 2.316469 60.462975
v 28.786106 2.316463 -23.727360
v -19.479279 2.316469 65.231781
# 104 vertices

vt 0.000000 0.998047
vt 0.000000 0.917969
vt 0.078125 0.998047
vt 0.078125 0.917969
vt 0.000000 0.078125
vt 0.078125 0.078125
vt 0.919922 0.078125
vt 0.919922 0.000000
vt 1.000000 0.078125
vt 1.000000 0.000000
vt 0.000000 0.000000
vt 0.078125 0.000000
vt 0.000000 0.476563
vt 0.078125 0.476563
vt 0.082031 0.523438
vt 0.917969 0.523438
vt 0.082031 1.000000
vt 0.917969 1.000000
vt 0.000000 0.486328
vt 0.078125 0.486328
vt 0.000000 0.964844
vt 0.078125 0.964844
vt 0.914063 0.996094
vt 0.914063 0.523438
vt 0.082031 0.996094
vt 1.000000 0.080078
vt 0.919922 0.080078
vt 1.000000 0.919922
vt 0.919922 0.919922
vt 1.000000 1.000000
vt 0.919922 1.000000
vt 0.917969 0.421875
vt 0.917969 0.900391
vt 0.998047 0.421875
vt 0.998047 0.900391
vt 0.917969 0.693359
vt 0.917969 0.214844
vt 0.998047 0.693359
vt 0.998047 0.214844
vt 0.998047 0.080078
vt 0.998047 0.000000
vt 0.998047 0.919922
vt 0.923828 0.371094
vt 0.994141 0.371094
vt 0.923828 0.298828
vt 0.994141 0.298828
vt 0.923828 0.798828
vt 0.994141 0.798828
vt 0.923828 0.869141
vt 0.994141 0.869141
vt 0.927734 0.443359
vt 0.927734 0.871094
vt 1.000000 0.443359
vt 1.000000 0.871094
vt 0.445313 0.496094
vt 0.917969 0.496094
vt 0.445313 0.019531
vt 0.917969 0.019531
vt 0.919922 0.298828
vt 0.919922 0.726563
vt 0.992188 0.298828
vt 0.992188 0.726563
vt 0.082031 0.496094
vt 0.082031 0.019531
vt 0.976563 0.046875
vt 0.955078 0.046875
vt 0.976563 0.945313
vt 0.955078 0.945313
vt 0.986328 0.572266
vt 0.962891 0.572266
vt 0.986328 0.003906
vt 0.962891 0.003906
vt 0.951172 0.945313
vt 0.972656 0.945313
vt 0.951172 0.046875
vt 0.972656 0.046875
vt 0.925781 0.003906
vt 0.949219 0.003906
vt 0.925781 0.572266
vt 0.949219 0.572266
vt 0.003906 0.074219
vt 0.023438 0.074219
vt 0.003906 0.914063
vt 0.023438 0.914063
vt 0.027344 0.261719
vt 0.046875 0.261719
vt 0.027344 0.738281
vt 0.046875 0.738281
vt 0.000000 0.261719
vt 0.019531 0.261719
vt 0.000000 0.738281
vt 0.019531 0.738281
vt 0.039063 0.917969
vt 0.019531 0.917969
vt 0.039063 0.078125
vt 0.019531 0.078125
vt 0.951172 0.003906
vt 0.927734 0.003906
vt 0.951172 0.572266
vt 0.927734 0.572266
vt 0.062500 0.738281
vt 0.039063 0.738281
vt 0.062500 0.261719
vt 0.039063 0.261719
vt 0.042969 0.261719
vt 0.023438 0.261719
vt 0.042969 0.738281
vt 0.023438 0.738281
vt 0.001953 0.000000
vt 0.074219 0.000000
vt 0.072266 0.738281
vt 0.011719 0.035156
vt 0.027344 0.035156
vt 0.011719 0.910156
vt 0.027344 0.910156
vt 0.011719 0.960938
vt 0.027344 0.960938
vt 0.011719 0.082031
vt 0.027344 0.082031
vt 0.994141 0.257813
vt 0.921875 0.257813
vt 0.994141 0.998047
vt 0.921875 0.998047
vt 0.972656 0.949219
vt 0.957031 0.949219
vt 0.972656 0.000000
vt 0.957031 0.000000
vt 0.972656 0.050781
vt 0.957031 0.050781
vt 0.972656 1.000000
vt 0.957031 1.000000
vt -0.001953 0.998047
vt -0.001953 0.257813
vt 0.070313 0.998047
vt 0.070313 0.257813
vt 0.966797 0.949219
vt 0.951172 0.949219
vt 0.966797 0.000000
vt 0.951172 0.000000
vt 0.966797 0.050781
vt 0.951172 0.050781
vt 0.966797 1.000000
vt 0.951172 1.000000
# 143 texture coordinates

vn -0.000000 -0.707107 -0.707107
vn 0.218218 -0.872872 0.436436
vn -0.666667 -0.666667 -0.333333
vn -0.707107 -0.707107 0.000000
vn 0.365148 -0.912871 -0.182574
vn -0.000000 -0.707107 0.707107
vn -0.408248 -0.408248 0.816497
vn -0.365148 -0.912871 0.182574
vn 0.666667 -0.666667 0.333333
vn 0.408248 -0.408248 -0.816497
vn -0.218218 -0.872872 -0.436436
vn 0.707107 -0.707107 0.000000
vn -0.707107 0.707107 0.000000
vn 0.436436 0.872872 0.218218
vn -0.333333 0.666667 -0.666667
vn 0.000000 0.707107 -0.707107
vn 0.182574 0.912871 -0.365148
vn -0.816497 0.408248 0.408248
vn 0.000000 0.707107 0.707107
vn -0.182574 0.912871 0.365148
vn 0.816497 0.408248 -0.408248
vn 0.333333 0.666667 0.666667
vn -0.436436 0.872872 -0.218218
vn 0.707107 0.707107 0.000000
vn -0.872872 0.436436 0.218218
vn -0.707107 0.000000 -0.707107
vn -0.912871 0.182574 -0.365148
vn -0.707107 0.000000 0.707107
vn -0.912871 -0.182574 0.365148
vn -0.408248 0.816496 -0.408248
vn -0.666667 -0.333333 -0.666667
vn -0.666667 0.333333 0.666667
vn -0.408248 -0.816497 0.408248
vn -0.872872 -0.436436 -0.218218
vn 0.218218 0.436436 0.872872
vn -0.365148 0.182574 0.912871
vn 0.707107 -0.000000 0.707107
vn 0.365148 -0.182574 0.912871
vn -0.408248 0.816497 0.408248
vn -0.666667 -0.333333 0.666667
vn 0.666667 0.333333 0.666667
vn 0.408248 -0.816497 0.408248
vn -0.218218 -0.436436 0.872872
vn 0.872872 0.436436 -0.218218
vn 0.912871 0.182574 0.365148
vn 0.707107 -0.000000 -0.707107
vn 0.912871 -0.182574 -0.365148
vn 0.408248 0.816497 0.408248
vn 0.666667 -0.333333 0.666667
vn 0.666667 0.333333 -0.666667
vn 0.408248 -0.816497 -0.408248
vn 0.872872 -0.436436 0.218218
vn -0.218218 0.436436 -0.872872
vn 0.365148 0.182574 -0.912871
vn -0.365148 -0.182574 -0.912871
vn 0.408248 0.816497 -0.408248
vn 0.666667 -0.333333 -0.666667
vn -0.666667 0.333333 -0.666667
vn -0.408248 -0.816497 -0.408248
vn 0.218218 -0.436436 -0.872872
vn -0.707107 -0.614220 -0.350334
vn -0.707107 0.614220 0.350334
vn 0.000000 0.868638 0.495447
vn -0.000000 -0.868638 -0.495447
vn -0.786166 0.447214 -0.426548
vn 0.393085 0.894427 0.213271
vn -0.393083 0.894427 -0.213274
vn 0.786169 0.447214 0.426542
vn -0.878960 0.000000 -0.476895
vn 0.878964 0.000000 0.476888
vn 0.621521 -0.707107 0.337211
vn -0.621519 -0.707107 -0.337216
# 72 normals

g construct
usemtl mat_woodbox4_5_1
s 1
f 5/1/1 6/2/2 1/3/3
f 2/4/4 1/3/3 6/2/2
f 6/2/2 7/5/5 2/4/4
f 3/6/4 2/4/4 7/5/5
f 7/7/5 8/8/6 3/9/4
f 4/10/7 3/9/4 8/8/6
f 9/11/1 10/12/8 5/13/1
f 6/14/2 5/13/1 10/12/8
f 59/15/7 60/16/3 58/17/9
f 57/18/10 58/17/9 60/16/3
f 11/19/11 12/20/6 7/21/5
f 8/22/6 7/21/5 12/20/6
f 13/1/10 14/2/12 9/3/1
f 10/4/8 9/3/1 14/2/12
f 14/2/12 15/5/12 10/4/8
f 11/6/11 10/4/8 15/5/12
f 15/5/12 16/11/9 11/6/11
f 12/12/6 11/6/11 16/11/9
f 18/4/13 22/2/14 17/3/15
f 21/1/16 17/3/15 22/2/14
f 19/6/13 23/5/17 18/4/13
f 22/2/14 18/4/13 23/5/17
f 20/12/18 24/11/19 19/6/13
f 23/5/17 19/6/13 24/11/19
f 22/14/14 25/12/20 21/13/16
f 28/11/16 21/13/16 25/12/20
f 62/23/21 63/24/15 61/25/22
f 64/15/18 61/25/22 63/24/15
f 24/22/19 27/20/19 23/21/17
f 26/19/23 23/21/17 27/20/19
f 25/4/20 30/2/24 28/3/16
f 29/1/21 28/3/16 30/2/24
f 26/6/23 31/5/24 25/4/20
f 30/2/24 25/4/20 31/5/24
f 27/12/19 32/11/22 26/6/23
f 31/5/24 26/6/23 32/11/22
f 2/26/4 34/27/25 1/10/3
f 33/8/26 1/10/3 34/27/25
f 3/28/4 35/29/27 2/26/4
f 34/27/25 2/26/4 35/29/27
f 4/30/7 36/31/28 3/28/4
f 35/29/27 3/28/4 36/31/28
f 34/32/25 45/33/29 33/34/26
f 56/35/26 33/34/26 45/33/29
f 66/18/30 67/16/31 65/17/32
f 68/15/33 65/17/32 67/16/31
f 36/36/28 47/37/28 35/38/27
f 46/39/34 35/38/27 47/37/28
f 45/40/29 18/27/13 56/41/26
f 17/8/15 56/41/26 18/27/13
f 46/42/34 19/29/13 45/40/29
f 18/27/13 45/40/29 19/29/13
f 47/30/28 20/31/18 46/28/34
f 19/29/13 46/28/34 20/31/18
f 8/43/6 37/44/35 4/45/7
f 36/46/28 4/45/7 37/44/35
f 12/47/6 38/48/36 8/43/6
f 37/44/35 8/43/6 38/48/36
f 16/49/9 39/50/37 12/47/6
f 38/48/36 12/47/6 39/50/37
f 37/51/35 48/52/38 36/53/28
f 47/54/28 36/53/28 48/52/38
f 70/55/39 71/56/40 69/57/41
f 72/58/42 69/57/41 71/56/40
f 39/59/37 50/60/37 38/61/36
f 49/62/43 38/61/36 50/60/37
f 48/43/38 24/44/19 47/45/28
f 20/46/18 47/45/28 24/44/19
f 49/47/43 27/48/19 48/43/38
f 24/44/19 48/43/38 27/48/19
f 50/49/37 32/50/22 49/47/43
f 27/48/19 49/47/43 32/50/22
f 15/28/12 40/29/44 16/30/9
f 39/31/37 16/30/9 40/29/44
f 14/26/12 41/27/45 15/28/12
f 40/29/44 15/28/12 41/27/45
f 13/10/10 42/8/46 14/26/12
f 41/27/45 14/26/12 42/8/46
f 40/38/44 51/39/47 39/36/37
f 50/37/37 39/36/37 51/39/47
f 74/56/48 75/58/49 73/63/50
f 76/64/51 73/63/50 75/58/49
f 42/34/46 53/35/46 41/32/45
f 52/33/52 41/32/45 53/35/46
f 51/28/47 31/29/24 50/30/37
f 32/31/22 50/30/37 31/29/24
f 52/40/52 30/27/24 51/42/47
f 31/29/24 51/42/47 30/27/24
f 53/41/46 29/8/21 52/40/52
f 30/27/24 52/40/52 29/8/21
f 9/47/1 43/48/53 13/49/10
f 42/50/46 13/49/10 43/48/53
f 5/43/1 44/44/54 9/47/1
f 43/48/53 9/47/1 44/44/54
f 1/45/3 33/46/26 5/43/1
f 44/44/54 5/43/1 33/46/26
f 43/61/53 54/62/55 42/59/46
f 53/60/46 42/59/46 54/62/55
f 78/55/56 79/57/57 77/56/58
f 80/58/59 77/56/58 79/57/57
f 33/53/26 56/54/26 44/51/54
f 55/52/60 44/51/54 56/54/26
f 54/47/55 28/48/16 53/49/46
f 29/50/21 53/49/46 28/48/16
f 55/43/60 21/44/16 54/47/55
f 28/48/16 54/47/55 21/44/16
f 56/45/26 17/46/15 55/43/60
f 21/44/16 55/43/60 17/46/15
f 6/65/2 58/66/9 7/67/5
f 57/68/10 7/67/5 58/66/9
f 10/69/8 59/70/7 6/71/2
f 58/72/9 6/71/2 59/70/7
f 11/67/11 60/68/3 10/65/8
f 59/66/7 10/65/8 60/68/3
f 7/71/5 57/72/10 11/69/11
f 60/70/3 11/69/11 57/72/10
f 23/73/17 62/74/21 22/75/14
f 61/76/22 22/75/14 62/74/21
f 26/77/23 63/78/15 23/79/17
f 62/80/21 23/79/17 63/78/15
f 25/75/20 64/76/18 26/73/23
f 63/74/15 26/73/23 64/76/18
f 22/77/14 61/78/22 25/79/20
f 64/80/18 25/79/20 61/78/22
f 35/81/27 66/82/30 34/83/25
f 65/84/32 34/83/25 66/82/30
f 46/77/34 67/78/31 35/79/27
f 66/80/30 35/79/27 67/78/31
f 45/83/29 68/84/33 46/81/34
f 67/82/31 46/81/34 68/84/33
f 34/79/25 65/80/32 45/77/29
f 68/78/33 45/77/29 65/80/32
f 38/85/36 70/86/39 37/87/35
f 69/88/41 37/87/35 70/86/39
f 49/89/43 71/90/40 38/91/36
f 70/92/39 38/91/36 71/90/40
f 48/87/38 72/88/42 49/85/43
f 71/86/40 49/85/43 72/88/42
f 37/91/35 69/92/41 48/89/38
f 72/90/42 48/89/38 69/92/41
f 41/93/45 74/94/48 40/95/44
f 73/96/50 40/95/44 74/94/48
f 52/97/52 75/98/49 41/99/45
f 74/100/48 41/99/45 75/98/49
f 51/95/47 76/96/51 52/93/52
f 75/94/49 52/93/52 76/96/51
f 40/99/44 73/100/50 51/97/47
f 76/98/51 51/97/47 73/100/50
f 44/101/54 78/102/56 43/103/53
f 77/104/58 43/103/53 78/102/56
f 55/105/60 79/106/57 44/107/54
f 78/108/56 44/107/54 79/106/57
f 54/103/55 80/104/59 55/101/60
f 79/102/57 55/101/60 80/104/59
f 43/107/53 77/108/58 54/105/55
f 80/106/59 54/105/55 77/108/58
f 83/109/61 84/91/61 81/110/62
f 82/111/62 81/110/62 84/91/61
f 82/112/62 86/113/63 81/114/62
f 85/115/63 81/114/62 86/113/63
f 83/116/61 87/117/64 84/118/61
f 88/119/64 84/118/61 87/117/64
f 94/120/65 96/121/66 93/122/67
f 95/123/68 93/122/67 96/121/66
f 90/124/69 94/125/65 89/126/69
f 93/127/67 89/126/69 94/125/65
f 91/128/70 95/129/68 92/130/70
f 96/131/66 92/130/70 95/129/68
f 99/132/71 100/133/71 97/134/72
f 98/135/72 97/134/72 100/133/71
f 98/136/72 102/137/69 97/138/72
f 101/139/69 97/138/72 102/137/69
f 99/140/71 103/141/70 100/142/71
f 104/143/70 100/142/71 103/141/70
# 174 triangles in group

# 174 triangles total

